<svg width="512" height="512" viewBox="0 0 512 512" fill="none" xmlns="http://www.w3.org/2000/svg">
<rect width="512" height="512" fill="url(#paint0_linear_712_459)"/>
<path d="M209.602 237.262C216.481 237.768 226.387 237.485 233.566 237.489L331.699 237.493C341.394 237.489 352.838 237.758 362.425 237.326L362.356 241.269L362.44 287.705L362.386 304.334C362.381 308.106 362.489 312.589 362.163 316.271C360.384 335.111 352.135 352.753 338.819 366.198C318.889 386.391 285.011 396.396 257.668 396.736C215.489 397.261 166.9 378.682 152.918 335.43C149.427 324.633 149.04 320.49 148.986 309.198L148.942 273.026C148.936 266.438 148.737 258.887 148.97 252.4C149.002 252.363 149.031 252.324 149.062 252.288C149.894 251.32 149.67 248.502 150.67 246.823C152.009 244.577 155.861 242.347 158.307 241.825C162.104 241.016 181.582 240.903 184.427 242.947C185.695 243.858 185.913 245.378 186.2 246.79L186.658 246.976C186.795 252.312 186.67 258.215 186.671 263.589L186.672 295.883C186.667 302.122 186.272 312.21 187.219 318.09C188.256 324.524 192.938 333.585 197.581 338.388C206.215 347.32 221.729 353.807 233.681 356.9C237.096 357.783 246.35 358.967 249.858 358.948C254.381 358.924 263.613 359.277 267.898 358.637C282.763 356.418 300.43 350.07 311.666 339.903C317.766 334.405 324.019 323.274 324.377 314.925C324.939 301.829 324.091 288.122 324.472 274.974C316.686 275.263 307.25 275.004 299.339 275.005L245.432 275.009C233.641 275.005 221.494 274.798 209.747 275.307C209.751 264.997 209.699 254.688 209.594 244.379L209.602 237.262Z" fill="url(#paint1_linear_712_459)"/>
<path d="M209.602 237.262C216.481 237.768 226.387 237.485 233.566 237.489L331.699 237.493C341.394 237.489 352.838 237.758 362.425 237.326L362.356 241.269L361.951 241.419C361.728 243.561 362.204 251.531 361.846 252.705C360.923 251.899 361.439 244.448 359.522 243.018C359.042 242.66 357.673 242.268 357.099 242.246C350.69 242.001 344.281 242.043 337.858 242.272C335.224 242.366 332.933 242.096 330.084 242.152C328.522 242.183 324.027 242.422 322.132 242.478C321.808 242.004 322.211 241.899 321.537 241.939C319.057 242.091 316.363 241.27 313.923 241.307C310.058 241.364 306.03 241.415 302.163 241.499C299.326 241.559 296.353 241.395 293.631 241.861C291.725 242.224 290.474 241.963 288.526 241.967C283.049 241.949 277.281 242.387 271.87 242.315C267.883 242.262 263.275 241.322 259.133 241.443C257.002 241.505 254.855 241.567 252.734 241.595C250.627 241.623 248.327 241.382 246.226 241.487C241.428 241.726 236.491 242.046 231.688 241.958C227.986 241.857 224.286 241.707 220.588 241.507C218.745 241.417 218.173 241.031 216.437 241.656C215.323 242.057 213.135 241.327 212.222 242.88C211.929 243.297 211.47 244.209 211.162 244.743L211.268 244.626L210.82 244.68L210.657 243.406L210.393 243.279C210.035 245.113 210.399 248.54 210.11 250.974C210.111 249.454 210.385 245.395 209.594 244.379L209.602 237.262Z" fill="url(#paint2_linear_712_459)"/>
<path d="M178.949 140.527C181.105 138.214 186.2 135.382 189.006 133.721C227.054 111.2 276.023 109.76 315.239 130.239C322.611 134.089 329.994 138.109 336.196 143.898C339.177 146.821 342.482 150.103 345.057 153.283C356.291 167.158 362.623 185.745 362.383 203.584C362.336 207.02 362.371 211.045 362.468 214.52L324.509 214.506C324.512 202.684 325.505 194.324 319.933 183.477C318.149 179.934 315.814 176.698 313.018 173.887C300.695 161.584 274.17 153.139 256.853 153.75C252.548 153.902 246.97 153.742 242.66 154.355C228.073 156.432 209.341 163.27 198.547 173.374C193.713 177.897 189.474 185.232 187.887 191.619C186.041 199.046 186.782 207.05 186.674 214.752C186.526 225.43 186.847 236.314 186.658 246.976L186.2 246.79C185.913 245.378 185.695 243.858 184.427 242.947C181.582 240.903 162.104 241.016 158.307 241.825C155.861 242.347 152.009 244.577 150.67 246.823C149.67 248.502 149.894 251.32 149.062 252.288C149.031 252.324 149.002 252.363 148.97 252.4C148.646 242.696 148.937 231.214 148.921 221.426C149.103 209.919 148.09 198.058 150.276 186.751C153.339 170.909 165.025 149.435 178.949 140.527Z" fill="url(#paint3_linear_712_459)"/>
<path d="M178.949 140.527C181.105 138.214 186.2 135.382 189.006 133.721C227.054 111.2 276.023 109.76 315.239 130.239C322.611 134.089 329.994 138.109 336.196 143.898C336.441 144.825 336.3 144.99 335.665 145.572L334.728 145.031C327.576 145.434 319.503 143.53 312.129 144.305C310.975 144.427 309.378 144.309 308.169 144.353C297.697 144.736 287.203 145.425 276.747 146.129C274.915 146.371 272.029 145.649 270.344 145.901C264.949 146.71 259.813 146.888 254.363 146.957C250.52 147.006 247.438 145.505 243.755 145.415C236.612 145.225 229.353 145.534 222.22 145.289C212.744 144.964 203.503 143.913 193.998 144.669C189.341 145.039 184.245 145.888 179.657 145.149C178.626 144.983 176.65 143.776 177.147 142.492C177.237 142.43 177.328 142.367 177.418 142.304L177.777 142.046C178.581 141.476 178.569 141.394 178.949 140.527Z" fill="url(#paint4_linear_712_459)"/>
<path d="M236.59 298.145C248.773 298.153 262.432 298.454 274.519 298.054C274.52 299.38 274.6 302.721 274.414 303.877C274.731 309.568 274.534 317.26 274.486 323.086L274.533 333.417C263.337 337.214 248.027 336.738 236.685 333.899C236.347 329.294 236.586 322.347 236.604 317.584L236.597 303.892L236.59 298.145Z" fill="url(#paint5_linear_712_459)"/>
<path d="M236.604 317.584C236.963 319.159 236.709 320.706 237.068 322.067C242.172 321.443 271.28 320.851 274.486 323.086L274.533 333.417C263.337 337.214 248.027 336.738 236.685 333.899C236.347 329.294 236.586 322.347 236.604 317.584Z" fill="url(#paint6_linear_712_459)"/>
<path d="M236.59 298.145C248.773 298.153 262.432 298.454 274.519 298.054C274.52 299.38 274.6 302.721 274.414 303.877C273.876 305.32 273.983 307.715 273.983 309.284C272.335 309.053 269.924 308.69 268.297 308.649C263.542 308.608 258.404 308.504 253.685 308.593C250.56 308.652 239.588 308.238 237.607 309.814L237.154 309.748C237.11 307.804 237.174 305.754 236.597 303.892L236.59 298.145Z" fill="url(#paint7_linear_712_459)"/>
<defs>
<linearGradient id="paint0_linear_712_459" x1="0" y1="0" x2="256" y2="512" gradientUnits="userSpaceOnUse">
<stop offset="0.000156824" stop-color="#5B23BA"/>
<stop offset="1" stop-color="#39156F"/>
</linearGradient>
<linearGradient id="paint1_linear_712_459" x1="255.642" y1="115.802" x2="255.642" y2="396.747" gradientUnits="userSpaceOnUse">
<stop stop-color="white"/>
<stop offset="1" stop-color="#858389"/>
</linearGradient>
<linearGradient id="paint2_linear_712_459" x1="255.642" y1="115.802" x2="255.642" y2="396.747" gradientUnits="userSpaceOnUse">
<stop stop-color="white"/>
<stop offset="1" stop-color="#858389"/>
</linearGradient>
<linearGradient id="paint3_linear_712_459" x1="255.642" y1="115.802" x2="255.642" y2="396.747" gradientUnits="userSpaceOnUse">
<stop stop-color="white"/>
<stop offset="1" stop-color="#858389"/>
</linearGradient>
<linearGradient id="paint4_linear_712_459" x1="255.642" y1="115.802" x2="255.642" y2="396.747" gradientUnits="userSpaceOnUse">
<stop stop-color="white"/>
<stop offset="1" stop-color="#858389"/>
</linearGradient>
<linearGradient id="paint5_linear_712_459" x1="255.642" y1="115.802" x2="255.642" y2="396.747" gradientUnits="userSpaceOnUse">
<stop stop-color="white"/>
<stop offset="1" stop-color="#858389"/>
</linearGradient>
<linearGradient id="paint6_linear_712_459" x1="255.642" y1="115.802" x2="255.642" y2="396.747" gradientUnits="userSpaceOnUse">
<stop stop-color="white"/>
<stop offset="1" stop-color="#858389"/>
</linearGradient>
<linearGradient id="paint7_linear_712_459" x1="255.642" y1="115.802" x2="255.642" y2="396.747" gradientUnits="userSpaceOnUse">
<stop stop-color="white"/>
<stop offset="1" stop-color="#858389"/>
</linearGradient>
</defs>
</svg>
