<?xml version="1.0" encoding="UTF-8"?><svg xmlns="http://www.w3.org/2000/svg" width="1190" height="1190" viewBox="0 0 1190 1190" fill="none" version="1.2" baseProfile="tiny-ps"><title>Bimigleec</title><rect width="1190" height="1190" fill="url(#paint0_linear_712_449)"></rect><path d="M487.161 551.449C503.149 552.624 526.174 551.966 542.859 551.975L770.942 551.985C793.475 551.977 820.073 552.602 842.356 551.598L842.195 560.762L842.392 668.689L842.265 707.339C842.254 716.105 842.505 726.524 841.747 735.083C837.612 778.87 818.441 819.874 787.491 851.125C741.17 898.056 662.428 921.312 598.879 922.102C500.844 923.322 387.912 880.14 355.416 779.614C347.302 754.517 346.402 744.888 346.276 718.643L346.174 634.573C346.161 619.26 345.698 601.71 346.241 586.634C346.313 586.546 346.382 586.455 346.455 586.372C348.386 584.124 347.868 577.574 350.192 573.671C353.304 568.45 362.256 563.267 367.94 562.054C376.766 560.173 422.037 559.911 428.649 564.661C431.596 566.779 432.103 570.311 432.771 573.595L433.836 574.026C434.154 586.429 433.864 600.149 433.866 612.637L433.868 687.698C433.856 702.198 432.938 725.643 435.139 739.311C437.549 754.265 448.431 775.324 459.222 786.487C479.289 807.248 515.348 822.325 543.127 829.513C551.064 831.565 572.572 834.317 580.725 834.274C591.239 834.218 612.695 835.038 622.655 833.551C657.204 828.393 698.266 813.64 724.381 790.009C738.558 777.23 753.091 751.359 753.924 731.953C755.23 701.516 753.259 669.659 754.146 639.1C736.049 639.771 714.118 639.169 695.731 639.173L570.438 639.182C543.034 639.171 514.801 638.691 487.5 639.874C487.507 615.912 487.388 591.951 487.143 567.991L487.161 551.449Z" fill="url(#paint1_linear_712_449)"></path><path d="M487.161 551.449C503.149 552.624 526.174 551.966 542.859 551.975L770.942 551.985C793.475 551.977 820.073 552.602 842.356 551.598L842.195 560.762L841.254 561.112C840.737 566.089 841.841 584.613 841.01 587.342C838.865 585.468 840.064 568.151 835.609 564.826C834.494 563.995 831.312 563.084 829.977 563.032C815.081 562.463 800.185 562.562 785.257 563.094C779.136 563.311 773.809 562.685 767.188 562.815C763.557 562.887 753.11 563.441 748.705 563.571C747.954 562.471 748.89 562.225 747.322 562.32C741.558 562.673 735.298 560.764 729.626 560.85C720.644 560.983 711.282 561.102 702.295 561.296C695.7 561.437 688.791 561.054 682.464 562.138C678.033 562.982 675.125 562.374 670.598 562.385C657.869 562.343 644.462 563.361 631.886 563.192C622.62 563.069 611.91 560.885 602.283 561.167C597.33 561.311 592.34 561.454 587.411 561.519C582.514 561.584 577.168 561.024 572.284 561.268C561.132 561.824 549.659 562.567 538.494 562.363C529.889 562.129 521.29 561.779 512.697 561.314C508.413 561.106 507.082 560.208 503.047 561.662C500.459 562.594 495.374 560.898 493.251 564.507C492.57 565.475 491.503 567.595 490.787 568.837L491.034 568.565L489.993 568.69L489.614 565.728L489 565.433C488.167 569.696 489.013 577.661 488.342 583.319C488.344 579.786 488.982 570.352 487.143 567.991L487.161 551.449Z" fill="url(#paint2_linear_712_449)"></path><path d="M415.918 326.616C420.929 321.239 432.771 314.657 439.291 310.798C527.725 258.452 641.54 255.107 732.686 302.704C749.819 311.651 766.98 320.996 781.395 334.451C788.323 341.245 796.005 348.872 801.99 356.264C828.1 388.513 842.816 431.711 842.258 473.174C842.15 481.16 842.23 490.516 842.455 498.592L754.231 498.559C754.237 471.083 756.546 451.651 743.594 426.44C739.448 418.207 734.023 410.685 727.523 404.151C698.883 375.558 637.232 355.929 596.984 357.35C586.978 357.703 574.013 357.329 563.995 358.755C530.092 363.582 486.555 379.475 461.467 402.959C450.233 413.472 440.381 430.519 436.692 445.363C432.401 462.627 434.122 481.229 433.873 499.131C433.527 523.949 434.275 549.246 433.836 574.026L432.771 573.595C432.103 570.311 431.596 566.779 428.649 564.661C422.037 559.911 376.766 560.173 367.94 562.054C362.256 563.267 353.304 568.45 350.192 573.671C347.868 577.574 348.386 584.124 346.455 586.372C346.382 586.455 346.313 586.546 346.241 586.634C345.488 564.079 346.163 537.393 346.125 514.643C346.549 487.898 344.194 460.33 349.275 434.05C356.394 397.231 383.556 347.319 415.918 326.616Z" fill="url(#paint3_linear_712_449)"></path><path d="M415.918 326.616C420.929 321.239 432.771 314.657 439.291 310.798C527.725 258.452 641.54 255.107 732.686 302.704C749.819 311.651 766.98 320.996 781.395 334.451C781.964 336.604 781.637 336.989 780.16 338.341L777.981 337.084C761.36 338.021 742.596 333.594 725.457 335.398C722.774 335.68 719.063 335.407 716.252 335.509C691.914 336.398 667.523 338 643.222 339.635C638.963 340.198 632.256 338.519 628.339 339.107C615.8 340.986 603.864 341.399 591.196 341.561C582.264 341.674 575.101 338.185 566.541 337.976C549.939 337.536 533.067 338.253 516.489 337.684C494.465 336.928 472.986 334.485 450.895 336.242C440.07 337.102 428.227 339.075 417.562 337.359C415.167 336.972 410.575 334.167 411.729 331.183C411.94 331.038 412.15 330.893 412.36 330.746L413.195 330.147C415.061 328.821 415.035 328.632 415.918 326.616Z" fill="url(#paint4_linear_712_449)"></path><path d="M549.887 692.954C578.204 692.972 609.951 693.673 638.044 692.744C638.046 695.824 638.232 703.59 637.799 706.277C638.535 719.504 638.078 737.383 637.966 750.924L638.076 774.934C612.054 783.76 576.469 782.652 550.109 776.053C549.322 765.351 549.878 749.206 549.921 738.134L549.904 706.312L549.887 692.954Z" fill="url(#paint5_linear_712_449)"></path><path d="M549.921 738.134C550.754 741.796 550.164 745.39 550.999 748.553C562.861 747.105 630.516 745.727 637.966 750.924L638.076 774.934C612.054 783.76 576.469 782.652 550.109 776.053C549.322 765.351 549.878 749.206 549.921 738.134Z" fill="url(#paint6_linear_712_449)"></path><path d="M549.887 692.954C578.204 692.972 609.951 693.673 638.044 692.744C638.046 695.824 638.232 703.59 637.799 706.277C636.549 709.629 636.798 715.196 636.797 718.844C632.967 718.307 627.363 717.462 623.583 717.368C612.53 717.273 600.588 717.031 589.62 717.237C582.357 717.375 556.856 716.412 552.25 720.075L551.198 719.922C551.096 715.404 551.245 710.639 549.904 706.312L549.887 692.954Z" fill="url(#paint7_linear_712_449)"></path><defs><linearGradient id="paint0_linear_712_449" x1="0" y1="0" x2="595" y2="1190" gradientUnits="userSpaceOnUse"><stop offset="0.000156824" stop-color="#5B23BA"></stop><stop offset="1" stop-color="#39156F"></stop></linearGradient><linearGradient id="paint1_linear_712_449" x1="594.169" y1="269.15" x2="594.169" y2="922.127" gradientUnits="userSpaceOnUse"><stop stop-color="white"></stop><stop offset="1" stop-color="#858389"></stop></linearGradient><linearGradient id="paint2_linear_712_449" x1="594.169" y1="269.15" x2="594.169" y2="922.127" gradientUnits="userSpaceOnUse"><stop stop-color="white"></stop><stop offset="1" stop-color="#858389"></stop></linearGradient><linearGradient id="paint3_linear_712_449" x1="594.169" y1="269.15" x2="594.169" y2="922.127" gradientUnits="userSpaceOnUse"><stop stop-color="white"></stop><stop offset="1" stop-color="#858389"></stop></linearGradient><linearGradient id="paint4_linear_712_449" x1="594.169" y1="269.15" x2="594.169" y2="922.127" gradientUnits="userSpaceOnUse"><stop stop-color="white"></stop><stop offset="1" stop-color="#858389"></stop></linearGradient><linearGradient id="paint5_linear_712_449" x1="594.169" y1="269.15" x2="594.169" y2="922.127" gradientUnits="userSpaceOnUse"><stop stop-color="white"></stop><stop offset="1" stop-color="#858389"></stop></linearGradient><linearGradient id="paint6_linear_712_449" x1="594.169" y1="269.15" x2="594.169" y2="922.127" gradientUnits="userSpaceOnUse"><stop stop-color="white"></stop><stop offset="1" stop-color="#858389"></stop></linearGradient><linearGradient id="paint7_linear_712_449" x1="594.169" y1="269.15" x2="594.169" y2="922.127" gradientUnits="userSpaceOnUse"><stop stop-color="white"></stop><stop offset="1" stop-color="#858389"></stop></linearGradient></defs></svg>